<?xml version="1.0" encoding="UTF-8"?><svg id="Calque_1" xmlns="http://www.w3.org/2000/svg" viewBox="0 0 500 500"><defs><style>.cls-1{fill:#1dbcad;}.cls-2{fill:#fff;}</style></defs><rect class="cls-1" width="500" height="500"/><path class="cls-2" d="M356.84,294.22h0c18.42,0,33.16-14.74,33.16-33.16V124.74c0-18.42-14.74-33.16-33.16-33.16h0c-18.42,0-33.16,14.74-33.16,33.16v136.31c0,18.42,14.74,33.16,33.16,33.16Z"/><path class="cls-2" d="M250,316.31h0c18.42,0,33.16-14.74,33.16-33.16v-47.89c0-18.42-14.74-33.16-33.16-33.16h0c-18.42,0-33.16,14.74-33.16,33.16v51.58c0,14.74,14.74,29.47,33.16,29.47h0Z"/><path class="cls-2" d="M143.16,327.37h0c18.42,0,33.16-14.74,33.16-33.16V124.73c0-18.42-14.74-33.16-33.16-33.16h0c-18.42,0-33.16,14.74-33.16,33.16v169.47c0,18.42,14.74,33.16,33.16,33.16Z"/><circle class="cls-2" cx="356.84" cy="342.11" r="33.16"/><circle class="cls-2" cx="253.69" cy="154.22" r="33.16" transform="translate(60.83 379.93) rotate(-80.78)"/><circle class="cls-2" cx="143.16" cy="375.26" r="33.16"/></svg>