<?xml version="1.0" encoding="UTF-8"?><svg id="Calque_1" xmlns="http://www.w3.org/2000/svg" viewBox="0 0 263.9 334.15"><defs><style>.cls-1{fill:#fff;}.cls-2{fill:#a7e00a;}</style></defs><path class="cls-2" d="M141.28,78.54c27.47,0,43.76,21.44,36.4,47.89-2.51,8.99-7.4,17.38-13.86,24.56l52.83,46.6c20.01-20.27,35.24-44.77,42.58-71.17C278.66,56.61,235.64,0,163.12,0c-41.69,0-84.01,18.74-116.2,47.91l52.83,46.6c11.83-9.81,26.77-15.97,41.51-15.97h.02Z"/><path class="cls-1" d="M171.77,181.65c-12.57,13.96-31.05,23.33-49.17,23.33-27.47,0-43.76-21.44-36.4-47.89,3.42-12.27,11.32-23.45,21.54-31.92l-52.83-46.6C31.15,100.14,12.92,127.39,4.66,157.09c-11.14,40.04-1.73,75.68,21.98,98.85l60.68,78.21,97.18-74.73c14.64-8.57,28.22-19.13,40.12-31.17l-52.83-46.6h-.02Z"/></svg>