<?xml version="1.0" encoding="utf-8"?>
<!-- Generator: Adobe Illustrator 27.9.0, SVG Export Plug-In . SVG Version: 6.00 Build 0)  -->
<svg version="1.1" id="Calque_1" xmlns="http://www.w3.org/2000/svg" xmlns:xlink="http://www.w3.org/1999/xlink" x="0px" y="0px"
	 viewBox="0 0 100 28" style="enable-background:new 0 0 100 28;" xml:space="preserve">
<style type="text/css">
	.st0{fill:#151919;}
	.st1{fill:#1DBCAD;}
</style>
<path class="st0" d="M0,20.3l2.8-2.6c1.2,1.3,2.4,2,3.8,2c0.7,0,1.3-0.2,1.6-0.5c0.4-0.3,0.6-0.7,0.6-1.2c0-0.5-0.2-0.8-0.6-1.1
	c-0.4-0.3-1.2-0.5-2.4-0.8c-2-0.5-3.3-1.1-4-2c-0.7-0.8-1-1.9-1-3.1c0-1.4,0.5-2.6,1.6-3.6C3.6,6.6,5.1,6.1,7,6.1
	c1.3,0,2.5,0.2,3.4,0.6c0.9,0.4,1.8,1.1,2.6,2.2l-3,2.3c-0.7-1.2-1.7-1.7-2.9-1.7C6.5,9.5,6,9.6,5.6,9.9C5.2,10.1,5,10.5,5,10.9
	c0,0.3,0.1,0.6,0.4,0.9c0.3,0.2,0.9,0.5,1.8,0.7c2.2,0.6,3.7,1.3,4.6,2.1c0.8,0.8,1.2,1.9,1.2,3.2c0,1-0.3,1.9-0.8,2.7
	c-0.5,0.8-1.3,1.4-2.3,1.9c-1,0.5-2,0.7-3.2,0.7C4,23.1,1.8,22.1,0,20.3z"/>
<path class="st0" d="M40.2,21.9c-1.2-0.8-2.2-1.8-2.9-3.1c-0.7-1.3-1.1-2.7-1.1-4.2c0-1.5,0.4-2.9,1.1-4.2c0.7-1.3,1.7-2.3,2.9-3.1
	c1.2-0.8,2.6-1.1,4-1.1c1.3,0,2.4,0.2,3.2,0.7c0.8,0.5,1.5,1.2,1.9,2.1V6.5h4.2v16.2h-4.1V20c-0.5,1-1.1,1.7-1.9,2.3
	c-0.8,0.5-1.9,0.8-3.3,0.8C42.7,23.1,41.4,22.7,40.2,21.9z M41,16.9c0.4,0.7,0.9,1.3,1.6,1.7c0.7,0.4,1.4,0.6,2.3,0.6
	c0.9,0,1.7-0.2,2.4-0.6c0.7-0.4,1.2-1,1.6-1.7c0.4-0.7,0.6-1.5,0.6-2.3c0-0.8-0.2-1.6-0.6-2.3c-0.4-0.7-0.9-1.3-1.6-1.7
	c-0.7-0.4-1.5-0.6-2.4-0.6c-0.9,0-1.6,0.2-2.3,0.6c-0.7,0.4-1.2,1-1.6,1.7c-0.4,0.7-0.6,1.5-0.6,2.3C40.4,15.5,40.6,16.2,41,16.9z"
	/>
<path class="st0" d="M55.5,20.3l2.8-2.6c1.2,1.3,2.4,2,3.8,2c0.7,0,1.3-0.2,1.6-0.5c0.4-0.3,0.6-0.7,0.6-1.2c0-0.5-0.2-0.8-0.6-1.1
	c-0.4-0.3-1.2-0.5-2.4-0.8c-2-0.5-3.3-1.1-4-2c-0.7-0.8-1-1.9-1-3.1c0-1.4,0.5-2.6,1.6-3.6c1.1-0.9,2.5-1.4,4.4-1.4
	c1.3,0,2.5,0.2,3.4,0.6c0.9,0.4,1.8,1.1,2.6,2.2l-3,2.3c-0.7-1.2-1.7-1.7-2.9-1.7c-0.6,0-1.1,0.1-1.5,0.4c-0.4,0.2-0.6,0.6-0.6,1.1
	c0,0.3,0.1,0.6,0.4,0.9c0.3,0.2,0.9,0.5,1.8,0.7c2.2,0.6,3.7,1.3,4.6,2.1c0.8,0.8,1.2,1.9,1.2,3.2c0,1-0.3,1.9-0.8,2.7
	c-0.5,0.8-1.3,1.4-2.3,1.9c-1,0.5-2,0.7-3.2,0.7C59.5,23.1,57.3,22.1,55.5,20.3z"/>
<path class="st0" d="M70.9,0h4.2v8.8C76,7,77.6,6.2,80,6.2c1.2,0,2.2,0.3,3.1,0.8c0.9,0.5,1.7,1.3,2.2,2.3c0.5,1,0.8,2.2,0.8,3.5
	v9.9h-4.2v-8.9c0-1.3-0.3-2.4-0.9-3c-0.6-0.7-1.5-1-2.5-1c-1,0-1.8,0.3-2.4,1c-0.6,0.7-1,1.7-1,3v8.9h-4.2V0z"/>
<path class="st0" d="M89.2,6.5h4.1v3.1c0.3-1.2,0.9-2.1,1.7-2.7c0.8-0.6,1.9-0.9,3.3-0.8v3.9h-0.6c-1.2,0-2.3,0.4-3.1,1.2
	c-0.8,0.8-1.2,1.8-1.2,3.2v8.3h-4.2V6.5z"/>
<path class="st1" d="M31.8,20.1L31.8,20.1c1.2,0,2.1-0.9,2.1-2.1V9.2c0-1.2-0.9-2.1-2.1-2.1h0c-1.2,0-2.1,0.9-2.1,2.1V18
	C29.7,19.2,30.7,20.1,31.8,20.1z"/>
<path class="st1" d="M25.1,21.5L25.1,21.5c1.2,0,2.1-0.9,2.1-2.1v-3.3c0-1.2-0.9-2.1-2.1-2.1h0c-1.2,0-2.1,0.9-2.1,2.1v3.3
	C23,20.6,23.9,21.5,25.1,21.5z"/>
<path class="st1" d="M18.1,22.3L18.1,22.3c1.2,0,2.1-0.9,2.1-2.1v-11c0-1.2-0.9-2.1-2.1-2.1h0c-1.2,0-2.1,0.9-2.1,2.1v11
	C16,21.3,16.9,22.3,18.1,22.3z"/>
<circle class="st1" cx="31.8" cy="23.2" r="2.1"/>
<circle class="st1" cx="97.9" cy="20.7" r="2.1"/>
<circle class="st1" cx="25.1" cy="11" r="2.1"/>
<circle class="st1" cx="18.1" cy="25.3" r="2.1"/>
</svg>
