<?xml version="1.0" encoding="UTF-8"?><svg id="Calque_1" xmlns="http://www.w3.org/2000/svg" viewBox="0 0 1000 1000"><defs><style>.cls-1{fill:#1b1b21;}.cls-2{fill:#fff;}.cls-3{fill:#a7e00a;}</style></defs><rect class="cls-1" width="1000" height="1000" rx="105.71" ry="105.71"/><path class="cls-3" d="M518.05,345.44c46.18,0,73.58,37.43,61.21,83.61-4.2,15.68-12.46,30.35-23.33,42.89l88.84,81.36c33.65-35.39,59.26-78.16,71.61-124.25,32.67-121.91-39.68-220.74-161.59-220.74-70.1,0-141.28,32.71-195.37,83.66l88.83,81.35c19.9-17.11,45.03-27.89,69.79-27.89Z"/><path class="cls-2" d="M569.31,525.45c-21.14,24.39-52.19,40.72-82.69,40.72-46.18,0-73.58-37.43-61.21-83.61,5.74-21.41,19.02-40.93,36.22-55.72l-88.83-81.35c-39.98,37.66-70.63,85.26-84.51,137.07-18.73,69.88-2.89,132.14,36.95,172.58l102.03,136.53,163.43-130.44c24.6-14.96,47.45-33.39,67.45-54.42l-88.84-81.36Z"/></svg>