<?xml version="1.0" encoding="UTF-8"?><svg id="Calque_1" xmlns="http://www.w3.org/2000/svg" viewBox="0 0 700.08 168"><defs><style>.cls-1{fill:#fff;}.cls-2{fill:#a7e00a;}</style></defs><path class="cls-1" d="M45.55,127.5H7.75l25.32-91.01H0L10.11.08h103.94l-10.11,36.41h-33.07l-25.32,91.01Z"/><path class="cls-1" d="M136.17,91.09l-10.11,36.41h-37.8L123.69.08h66.15c31.5,0,43.03,15.17,34.58,45.51-6.74,24.27-20.85,38.83-42.33,43.69l29.01,38.23h-47.25l-27.69-36.41ZM151.38,36.48l-5.1,18.2h28.35c6.3,0,10.3-3.03,12-9.1,1.7-6.07-.6-9.1-6.9-9.1h-28.35Z"/><path class="cls-1" d="M403.44,127.5h-37.8l25.32-91.01h-33.07L368,.08h103.94l-10.11,36.41h-33.07l-25.32,91.01Z"/><path class="cls-1" d="M518.53,127.5h-37.8l25.32-91.01h-33.07L483.09.08h103.94l-10.11,36.41h-33.07l-25.32,91.01Z"/><path class="cls-1" d="M609.15,91.09l-10.11,36.41h-37.8L596.68.08h66.15c31.5,0,43.03,15.17,34.58,45.51-6.74,24.27-20.85,38.83-42.33,43.69l29.01,38.23h-47.25l-27.69-36.41ZM624.36,36.48l-5.1,18.2h28.35c6.3,0,10.3-3.03,12-9.1,1.7-6.07-.6-9.1-6.9-9.1h-28.35Z"/><path class="cls-2" d="M289.65,39.49c13.81,0,22,10.78,18.3,24.08-1.26,4.52-3.72,8.74-6.97,12.35l26.56,23.43c10.06-10.19,17.72-22.51,21.41-35.78,9.77-35.11-11.86-63.57-48.32-63.57-20.96,0-42.24,9.42-58.42,24.09l26.56,23.43c5.95-4.93,13.46-8.03,20.87-8.03Z"/><path class="cls-1" d="M304.98,91.33c-6.32,7.02-15.61,11.73-24.72,11.73-13.81,0-22-10.78-18.3-24.08,1.72-6.17,5.69-11.79,10.83-16.05l-26.56-23.43c-11.95,10.85-21.12,24.55-25.27,39.48-5.6,20.13-.87,38.05,11.05,49.7l30.51,39.32,48.86-37.57c7.36-4.31,14.19-9.62,20.17-15.67l-26.56-23.43Z"/></svg>