<?xml version="1.0" encoding="UTF-8"?><svg id="Calque_1" xmlns="http://www.w3.org/2000/svg" viewBox="0 0 268.13 187.1"><defs><style>.cls-1{fill:#1a1718;}</style></defs><path class="cls-1" d="M263.02,94.84c.05-.77.11-2.29.14-3.04,1.09-1.2,2.54-2.79,1.61-4.52-1.66-2.81-4.06-5.06-6.11-7.58-8.33-10.22-17.93-19.27-27.13-28.69-9.72-10.53-20.5-20.02-31.28-29.47-5.61-4.95-11.62-9.44-17.62-13.94-3.11-2.2-5.31-5.58-8.81-7.24-2.61-.93-5.38.16-7.97.66-11.15,2.91-21.88,7.24-32.42,11.87-11.08,5.22-22.25,10.96-31.08,19.61-3.29-1.18-6.83-1.2-10.26-.77-7.74,1.02-15.3,3.02-22.77,5.2-15.73,4.79-31.35,10.01-46.4,16.66-5.2,2.45-10.96,4.15-15.37,7.97-3.52,3.04-1.14,7.88-2.16,11.76-.79,3.95.39,7.85,1.16,11.69-2.27.16-5.06.16-6.38,2.38-.66,1.61.52,3.11,1.27,4.45,1.97,3.06,2.97,6.61,4.79,9.76,1.82,3.25,3.72,6.45,5.52,9.72,4,7.17,9.49,13.33,14.44,19.82,9.47,12.21,20.23,23.34,30.8,34.57,3.9,4.15,8.42,7.67,12.49,11.69,3.29,3.43,6.38,7.29,10.65,9.58,2.02.54,3.68-1.09,5.33-2,10.87-7.01,22.45-12.83,34.05-18.55,6.36-3.34,12.78-6.54,19.36-9.42.48,2.47.86,5.06,2.63,6.99,2.2-2.86,3.31-6.33,3.93-9.83.82-.41,1.66-.84,2.5-1.25,1.75,1.18,3.41,2.59,5.45,3.22,1.36-1.75,1.43-3.93.95-5.99,4.31-1.88,8.63-3.75,12.94-5.65,5.33-2.47,11.76-.93,16.87-4.09,4.86-2.52,6.74-8.51,11.9-10.65,15.66-6.13,31.12-12.78,46.79-18.89,7.95-3.11,15.73-6.58,23.81-9.31,1.02-1.95,1.5-4.09,1.48-6.29-1.63-.64-3.38-.75-5.11-.45ZM8.98,66.11c1.5-2.54,4.52-3.54,7.01-4.81,14.96-6.42,30.31-11.96,45.9-16.62,10.67-3.29,21.45-6.56,32.58-7.88,3.18-.43,6.56.3,9.1,2.29,4.34,3.2,7.56,7.6,11.08,11.62,5.36,6.17,11.24,11.9,16.71,17.98,6.4,7.08,12.28,14.62,18.57,21.79,5.99,6.99,12.28,13.73,17.52,21.32,2.47,3.84,5.7,7.26,7.33,11.6-4.93,2.81-10.71,3.36-16.03,5.2-21.36,6.95-42.97,14.17-61.95,26.42-4.65,2.61-8.44,6.63-13.42,8.65-7.13-5.88-13.8-12.28-19.89-19.2-4.25-4.88-8.92-9.33-13.01-14.3-4.18-4.99-8.44-9.92-12.71-14.82-5.97-6.88-10.83-14.62-15.98-22.11-4.15-6.2-8.42-12.42-11.1-19.43-.89-2.47-2.02-5.02-1.73-7.7ZM27.89,107.47c2.61,3.79,5.4,7.47,8.47,10.92,3.2,3.29,3.77,8.17,6.81,11.6-.43-1.41-1.32-4.2-1.75-5.61,5.13,5.74,9.78,11.92,15.23,17.39,8.04,8.94,16.16,17.84,25.08,25.95.27,2.11.54,4.22.84,6.36-5.4-4.93-11.58-8.85-16.93-13.78-9.72-8.88-18.75-18.48-27.22-28.53-9.26-9.92-17.18-21.04-23.72-32.92-4.18-7.7-6.67-16.25-7.49-24.97,5.27,12.12,13.37,22.68,20.68,33.6ZM120.6,162.61c-13.03,6.7-26.22,13.05-39.27,19.66-5.33-3.65-9.38-8.76-14.39-12.78-5.2-4.22-9.87-9.01-14.41-13.89-12.33-12.3-23.63-25.58-34.19-39.43-3.56-4.7-6.15-10.01-9.1-15.1-2.38-4-3.34-8.67-6.06-12.49,1.23-.52,2.5-1.04,3.75-1.57,4.56,13.44,12.94,25.11,21.32,36.41,14.32,17.07,28.38,34.71,46.22,48.28,2.79,1.93,4.72,4.97,7.81,6.52,2.93-.95,5.2-3.29,7.9-4.77,10.96-6.36,22.34-11.92,33.8-17.28,4.2-2.04,8.35-4.2,12.69-5.9.41,1.14.82,2.27,1.27,3.43-5.83,2.88-11.76,5.52-17.32,8.9ZM153.13,147.44c-.59-1.2-1.16-2.38-1.73-3.56,4.2-1.48,8.24-3.43,12.58-4.52,2.25-.66,4.52.3,6.74.73-5.36,3.52-11.76,4.88-17.59,7.36ZM199.21,123.95c-3.75,1.66-7.65,3.45-10.12,6.88-2.7,3.65-5.99,7.47-10.76,8.13,2.57-1.79,5.38-3.59,6.81-6.54,1.29-2.09,1.82-4.97,4.31-5.99,3.31-1.66,6.86-2.81,10.28-4.2,7.67-2.86,15.21-6.24,23.15-8.35-7.97,3.18-15.98,6.29-23.68,10.08ZM258.55,94.23c-8.99,1.57-18.18,3.54-26.15,8.19,8.79-2.07,17.34-4.88,26.02-7.4-1.23,4.06-5.7,4.88-9.08,6.38-16.3,5.38-32.62,10.71-48.65,16.91-4.49,1.75-9.13,3.06-13.58,4.88-3.59,1.34-3.9,5.7-6.4,8.15-1.97,1.97-4.34,3.88-7.13,4.47-3.25.18-6.47-1.36-9.67-.32-4.88,1.38-9.31,3.97-14.03,5.79-.98-1.25-1.88-3.25-3.77-3.09-4.49.25-7.79,3.88-12.01,4.97-10.12,3-20.09,6.99-28.6,13.3,8.99-4.04,18.02-7.97,27.17-11.67.52,1.23,1.16,2.38,1.91,3.5-15.28,6.95-30.56,13.96-45.51,21.59-1.77.93-3.47,1.97-5.18,3.02.16-1.54.34-3.06.54-4.59,2.86-2.18,5.2-4.93,7.97-7.22,19.55-13.51,42.31-21.18,64.86-28.1,5.88-1.93,12.1-2.75,17.93-4.81,2.88-1,3.02-4.38,3.65-6.86,10.33-6.99,22.36-10.81,33.85-15.44,15.23-5.92,30.96-10.49,46.9-13.98-.36.77-.7,1.54-1.04,2.32ZM209.97,102.38c-11.24,4.47-22.7,8.67-32.76,15.55-6.74-11.42-15.07-21.79-23.93-31.67-6.95-7.85-13.39-16.14-20.63-23.72-3.75-4.06-7.83-7.76-11.51-11.9-5.38-5.47-9.78-11.94-16.03-16.5,11.65-8.76,24.61-15.64,38.09-21.13,8.56-3.5,17.25-6.9,26.33-8.88,4.72-1.5,7.2,3.81,10.58,6.02,11.19,8.13,21.7,17.09,31.85,26.49,6.4,5.68,12.49,11.71,18.32,18,5.56,5.47,10.94,11.12,16.37,16.71,5.02,5.36,9.58,11.12,14.44,16.62-17.5,2.91-34.62,7.95-51.12,14.41ZM261.43,98.98c-.75-.7.18-2.36,1.2-1.84.79.7-.23,2.34-1.2,1.84Z"/><path class="cls-1" d="M158.62,21.27c3-.54,6.81-2.19,9.51-.07-7.08,4.37-15.21,6.45-22.54,10.33-6.02,2.94-11.6,6.68-16.95,10.68,1.24-3.63,4.62-5.79,7.4-8.17,6.89-5.23,14.43-9.77,22.58-12.77Z"/><path class="cls-1" d="M144.26,36.69c9.11-4.5,18.49-9.58,28.85-10.08-7.96,5.22-17.18,7.8-25.89,11.42-5.76,2.21-11,5.6-16.81,7.64,3.66-4.22,9.15-6.17,13.85-8.98Z"/><path class="cls-1" d="M145.82,43.88c10.1-6.02,20.96-11.56,32.86-12.56-6.47,4.43-14.11,6.61-21.32,9.48-7.75,3.17-15.27,6.95-22.3,11.51,2.72-3.75,6.97-5.94,10.76-8.44Z"/><path class="cls-1" d="M160.15,46.09c6.85-3.32,13.96-6.86,21.69-7.21-13.67,6.08-26.8,13.42-40.87,18.58,6.09-4.24,12.7-7.71,19.17-11.37Z"/><path class="cls-1" d="M131.06,84.24c-2.66-7.65-8.94-13.05-14.21-18.89-4.9-5.61-10.03-11.01-14.69-16.84-.79-.84-1.57-2.16-2.91-1.88-18.57,2.79-35.71,11.1-52.03,20.02-8.04,4.61-16.3,9.06-22.93,15.64,5.06,7.42,10.31,14.73,15.96,21.75,3.61,4.7,7.58,9.26,12.46,12.71,4.09-1.75,7.79-4.29,11.76-6.24,20.11-10.12,41.59-18,63.97-21.16,2.66.09,3.45-3.04,2.61-5.11ZM99.44,49.99c.82.95,1.63,1.88,2.47,2.81-4.34,1.02-8.51,2.57-12.71,4.09-1.07-1.29-2.11-2.59-3.16-3.88,4.43-1.14,8.9-2.13,13.39-3.02ZM84.82,53.28c.89,1.36,1.77,2.72,2.68,4.11-4.49,1.84-9.03,3.54-13.46,5.56-1.18-1.27-2.41-2.5-3.77-3.54.75,1.41,1.59,2.77,2.43,4.13-4.13,1.84-8.19,3.86-12.26,5.83-1.57-1.38-3.11-2.77-4.68-4.15,9.49-4.4,18.93-9.13,29.06-11.94ZM30.88,86.92c-1.27-1.93-2.75-3.72-4.34-5.4,4.43-3.09,9.1-5.81,13.82-8.4,1.34,1.73,2.61,3.47,3.9,5.24-4.56,2.7-9.08,5.47-13.39,8.56ZM45.8,77.55c-1.45-1.7-2.93-3.34-4.47-4.93,4.22-2.18,8.38-4.45,12.62-6.61,1.41,1.52,2.84,3.04,4.25,4.59-4.15,2.25-8.29,4.61-12.39,6.95ZM64.96,104.56c-.92-.73-1.58-1.82-2.28-2.75-.77-1.02-1.53-2.04-2.28-3.06-1.48-2-2.91-4.06-4.54-5.95-3.18-3.67-6.14-7.51-9.01-11.42-.54-.73.69-1.66,1.25-.97,3.05,3.78,5.94,7.68,8.65,11.71,1.43,2.13,3.12,4.09,4.76,6.06.82.98,1.64,1.95,2.46,2.93.72.84,1.56,1.65,2.06,2.64.36.72-.47,1.28-1.06.82ZM81.97,96.95c-1.03-.86-1.85-1.98-2.78-2.95-.85-.89-1.77-1.72-2.66-2.56-1.85-1.74-3.71-3.48-5.36-5.41-3.52-4.12-7.34-8.08-9.82-12.95-.24-.47.36-.98.75-.58,1.95,2,3.93,3.99,5.7,6.16,1.67,2.04,3.16,4.21,4.72,6.33,1.59,2.16,3.44,4.12,5.26,6.08,1.57,1.69,3.65,3.42,4.72,5.48.18.35-.24.65-.53.41ZM96.71,91.72c-1.24-.62-2.19-1.86-3.14-2.86-.98-1.04-1.92-2.11-2.86-3.19-1.89-2.18-3.72-4.4-5.63-6.57-1.81-2.05-3.69-4.01-5.36-6.17-1.68-2.17-2.93-4.67-4.74-6.73-1.04-1.18.69-2.92,1.73-1.73,1.8,2.05,3.11,4.47,4.69,6.68,1.6,2.25,3.46,4.29,5.22,6.42,1.89,2.28,3.77,4.58,5.68,6.85.92,1.09,1.86,2.17,2.8,3.25.87.99,1.97,1.91,2.56,3.1.31.63-.32,1.26-.95.95ZM111.28,85.83c-1.14-.64-1.69-1.98-2.42-3.01-.82-1.16-1.71-2.28-2.63-3.37-1.7-2.02-3.54-3.92-5.31-5.89-1.9-2.11-3.61-4.37-5.18-6.74-.76-1.15-1.51-2.3-2.22-3.48-.62-1.03-1.1-2.11-2.34-2.48-.79-.23-.44-1.3.33-1.2,2.46.34,3.55,2.88,4.79,4.71,1.76,2.61,3.57,5.18,5.67,7.53,1.95,2.18,3.99,4.28,5.93,6.47.97,1.09,1.9,2.21,2.77,3.37.78,1.03,1.74,2.06,1.77,3.41.01.6-.67.96-1.17.67Z"/><path class="cls-1" d="M218.23,64.22c-7.47-5.99-16.23-9.97-24.58-14.46-1.38-.79-1,1.23-.86,1.88,1.04,10.49-2.2,21.34,1.38,31.55-.39,1.07-1.16,2.91.59,3.29,1.95.73,4.04-.82,5.92-1.43,7.26-3.63,14.62-7.06,21.97-10.56,2-.61,3.29-2.45,3.13-4.54-2.07-2.43-5.08-3.77-7.56-5.74ZM193.88,52.28c2.57,1.77,5.24,3.43,7.81,5.22-2.36,1.77-4.79,3.45-7.26,5.02-.02-3.43-.25-6.83-.54-10.24ZM194.69,72.73c-.2-2.57-.34-5.13-.36-7.7,3.56-1.66,7.54-2.84,10.37-5.74,2.52,1.57,4.99,3.2,7.51,4.84-6.2,2.09-11.78,5.52-17.52,8.6ZM196.42,83.02c-.16-2.77-.64-5.49-1.34-8.17,6.36-2.61,12.85-5.29,18.23-9.67,2.34,1.91,4.74,3.77,7.22,5.54-7.99,4.22-16.05,8.29-24.11,12.3Z"/><path class="cls-1" d="M220.53,70.71c-7.99,4.22-16.05,8.29-24.11,12.3-.16-2.77-.64-5.49-1.34-8.17,6.36-2.61,12.85-5.29,18.23-9.67,2.34,1.91,4.74,3.77,7.22,5.54Z"/><path class="cls-1" d="M201.68,57.5c-2.36,1.77-4.79,3.45-7.26,5.02-.02-3.43-.25-6.83-.54-10.24,2.57,1.77,5.24,3.43,7.81,5.22Z"/><path class="cls-1" d="M183.41,71.64c-3-4.04-7.83-6.02-11.94-8.67-.02-.52-.05-1.57-.05-2.09-1.95.52-3.79,1.34-5.45,2.43-3.95,2.47-8.15,4.61-11.76,7.63-1.23.93-.23,2.52.64,3.31,2.68,2.75,4.59,6.15,7.49,8.69,2.45,2.09,4.15,4.95,6.83,6.79,3.54-4.29,7.76-7.88,12.1-11.33,1.95-1.52,3.88-4.4,2.13-6.76ZM168.93,85.13c-2.61-3.02-5.99-5.22-8.47-8.35-1.23-1.54-2.5-3.06-3.86-4.47,4.43-3.25,9.19-5.99,13.82-8.97,2.54,4.56,7.24,6.95,10.78,10.56-4.15,3.68-8.69,6.99-12.28,11.24Z"/><path class="cls-1" d="M181.21,73.89c-4.15,3.68-8.69,6.99-12.28,11.24-2.61-3.02-5.99-5.22-8.47-8.35-1.23-1.54-2.5-3.06-3.86-4.47,4.43-3.25,9.19-5.99,13.82-8.97,2.54,4.56,7.24,6.95,10.78,10.56Z"/><path class="cls-1" d="M214.73,86.87c4.95-2.26,10.19-3.82,15.56-4.69-3.25,4.23-8.44,6.31-13.39,7.81-9.33,2.83-18.06,7.3-26.3,12.46-3.5,2.05-6.79,4.47-10.46,6.21,3.36-3.65,7.62-6.31,11.63-9.19,7.18-5,14.81-9.37,22.96-12.61Z"/><path class="cls-1" d="M171.85,94.88c4.08-3.68,8.98-6.55,14.36-7.84-3.09,2.59-6.65,4.52-10.16,6.44-1.34.65-2.64,1.62-4.2,1.4Z"/><path class="cls-1" d="M176.03,98.45c3.92-2.9,7.94-6.19,12.93-6.94-5.51,4.19-10.95,8.82-17.62,11.02,1.09-1.83,3.06-2.79,4.69-4.08Z"/><path class="cls-1" d="M120.96,104.77c.82-.29,1.67-.54,2.56-.76,3.06,1.29,5.29,4.08,6.96,6.88.22,1.7-.83,3.48-2.37,4.2-3.32,1.67-6.85,3.05-10.56,3.4,1.55-2.29,4.04-3.65,6.15-5.34-4.37-1.46-9.04-1.72-13.33-3.4-1.92-.73-3.8-1.54-5.7-2.26-1.31,5.26-2.71,10.5-4.03,15.76-.4,1.88-2.17,3.97-4.25,2.9-5.97-2.15-11.39-5.56-17.01-8.44,6.19,1.25,11.65,4.73,17.79,6.2,1.83-6.06,2.97-12.36,5.24-18.27,1.83-1.91,4.42-.72,6.46.15,4.7,2.09,9.91,2.3,14.89,3.39-1.01-1.44-1.95-2.9-2.81-4.41Z"/><path class="cls-1" d="M184.52,120.18c14.48-7.84,30.77-11.51,46.69-15.22-9.08,3.9-18.71,6.34-28.16,9.21-6.29,1.67-12.21,4.49-18.53,6.01Z"/><path class="cls-1" d="M128.87,122.36c4.7-2.39,9.59-4.44,14.66-5.92-4.52,4.51-10.32,7.43-15.97,10.25-9.84,5.15-19.67,10.37-29.08,16.29-2.6,1.52-5.02,3.59-8.03,4.24-4.17-2.28-6.83-6.38-9.96-9.82-5.04-5.86-10.54-11.31-15.45-17.28,4.08,1.66,6.78,5.33,10.03,8.13,5.52,4.81,10.14,10.56,15.78,15.23,12.4-7.51,25.09-14.53,38.01-21.1Z"/></svg>