<?xml version="1.0" encoding="UTF-8"?><svg id="Calque_1" xmlns="http://www.w3.org/2000/svg" viewBox="0 0 107.54 197.74"><defs><style>.cls-1{fill:#1a1718;}</style></defs><path class="cls-1" d="M107.36,118.47c-.64-7.8-1.21-16.36-6.27-22.71-3.53-3.89-8.03-6.69-12.28-9.67-5.95-3.63-9.6-10.07-11.56-16.59,3.63-4.65,6.67-9.86,8.2-15.59,2-8.05,2-16.4,1.85-24.64.02-2.38-.7-4.63-1.55-6.82.57-2,1.34-4.27.19-6.2-3.38-6.42-9.9-10.43-16.51-12.9-5.67-2-11.69-3.85-17.76-3.21-6.52.55-12.81,3.29-17.89,7.39-5.27,5.52-6.95,13.53-6.82,20.95-1.38,12.07-1.76,24.79,2.89,36.24,1.53,4.08,4.76,7.24,8.35,9.6-8.82,5.67-19.18,8.73-27.49,15.3-3.87,3.21-5.16,8.33-5.86,13.09-2.97,20.01-3.4,40.28-4.48,60.44-.28,8.14-.89,16.4.53,24.45.57,3.74,4.12,5.89,7.61,6.39,2.73.52,5.47.97,8.22,1.39-.03-1.08-.01-2.16.01-3.25.07-3.03.26-6.06.37-9.06,0-.15.02-.3.02-.45.18-5.01.4-10.02.69-15.03.43-7.47,1.11-14.84,2-22.23.33-2.72.67-5.43,1.05-8.16.13-.96,1.81-.73,1.7.23-1.28,10.29-1.24,20.83-1.28,31.19-.02,5.34-.05,10.66-.2,16-.07,2.7-.13,5.44-.34,8.17-.08,1.05-.17,2.09-.31,3.13,10.39,1.37,20.88,1.95,31.36,1.81.14-1.18.27-2.35.36-3.5.32-4.15.68-8.31.92-12.47.49-8.48.36-16.99,1.2-25.46.13-1.34,2.21-1.38,2.12,0-.08,1.3-.09,2.6-.12,3.9-.17,7.35.26,14.69-.04,22.04-.17,4.07-.42,8.15-.66,12.22-.01.24-.03.48-.04.72-.05.79-.09,1.61-.13,2.43,6.35-.48,12.71-.87,19.08-1.28,1.81-.29,3.61-.3,5.42-.24.07-.96.15-1.91.25-2.87.62-6.23,1.69-12.44,2.64-18.56.14-.92.28-1.84.43-2.77,1.5-9.81,2.81-19.58,2.91-29.52,0-.41.02-.83.02-1.24,0-1.39,2.17-1.39,2.16,0-.08,10.79-.86,21.61-1.94,32.35-.04.37-.07.75-.11,1.12-.51,5.02-1.02,10.07-1.64,15.11.14.86.25,1.72.42,2.58-.26.08-.52.12-.77.19-.16,1.24-.35,2.48-.53,3.72,1.55.03,3.11,0,4.66-.26,4.63-.3,9.6-.87,13.26-4.06,1.83-2.32,2.59-5.27,3.17-8.09,1.66-9.31,1.4-18.78,1.87-28.17.68-12.36,1.13-24.77.68-37.16ZM36.98,69.03c-4.16-3.51-5.65-9.01-6.78-14.11-1.74-9.16-2-18.53-1.38-27.81.19-3.29,1.3-6.44,2.61-9.43,3.76,5.59,7.48,11.24,11.41,16.74,1.78,2.51,3.99,4.8,6.88,6.05,3.68-3.06,1.4-8.05.68-11.94,3.14,3.68,6.73,8.14,12.09,7.97,1.87-2.66.85-5.86.28-8.75,2.76,2.19,5.67,5.1,9.52,4.82,2.44-2.1,1.1-5.63,1.13-8.37,3.31,1.44,6.9,2.8,10.58,1.93.89,7.12.4,14.3-.32,21.42-.81,8.07-4.63,15.72-10.39,21.39-5.74,5.38-14.15,6.37-21.65,5.48-5.14-.83-10.47-2.15-14.66-5.4ZM62.41,99.75c2.23.72,4.63.98,6.69-.4-1.17,6.37-2.59,12.7-4.78,18.82-1-3.95-2.04-7.9-3.46-11.73,1.23-2.02,1.61-4.36,1.55-6.69ZM68.97,94.93c-.91,1.32-2.46,2.83-4.21,2.17-3.38-.89-5.82-3.57-7.75-6.29,4.4-.64,8.65-2.7,11.41-6.27,2.63-3.51,5.38-6.97,7.37-10.9.13-.11.4-.32.55-.42-2.27,3.85-2.15,8.46-3.61,12.58-1.04,3.12-1.93,6.37-3.76,9.14ZM32.43,114.64c-.66-2,1.42-3.25,2.51-4.59,1.85-2.1,4.57-4.29,4.31-7.37-3.14-1.83-7.12-1.34-10.09-3.55,2.36-6.52,5.95-12.56,8.01-19.18,2.44,12.96,5.48,25.79,8.01,38.73,1.81,8.26,4.44,16.44,4.95,24.94-4.82-10.33-14.3-17.91-17.7-28.98ZM48.22,118.91c-1.81-6.35-2.78-12.92-4.74-19.23,2.04,1.81,4.82,1.83,6.99.23-.13,2.46.51,4.87.91,7.29-.85,3.95-2.19,7.78-3.17,11.71ZM47.18,97.94c-2.06-.34-2.97-2.63-3.87-4.27-2.12-4.72-2.78-9.9-3.8-14.94,3.97,4.61,8.54,9.11,14.26,11.41-1.64,2.97-3.29,6.39-6.59,7.8ZM50.13,84.66c-3.61-2.76-7.41-5.46-9.88-9.35,10.39,3.91,22.73,4.63,32.51-1.36-3.72,4.48-6.63,10.22-12.34,12.45-3.42,1.68-7.37.34-10.28-1.74ZM71.97,105.78c.59,3.99,5.35,4.53,7.88,6.99-2.29,5.8-6.1,10.81-9.37,16.06-4.02,5.74-7.29,11.92-10.98,17.85,2.17-7.92,4.04-15.93,6.18-23.86,1.49-5.5,3.48-10.88,4.5-16.49,1.19-5.8,2.15-11.71,4.23-17.27,1.17-3.27,1.89-6.69,2.61-10.09,1.85,4.74,3.57,9.6,4.5,14.62-2.68,4.44-7.39,7.41-9.56,12.19Z"/></svg>