<?xml version="1.0" encoding="UTF-8"?><svg id="Calque_1" xmlns="http://www.w3.org/2000/svg" viewBox="0 0 413.35 276.41"><path d="M408.74,2.12c-52.71.01-105.39-1.05-158.09-1.65C224.37.18,198.09-.02,171.81,0c-12.96.01-25.99.65-38.92,1.5-5.29.35-10.47.19-10.77,6.39,0,.15.06.29.12.43-3.52,5.78-6.01,12.05-7.33,18.64-1.05-.82-2.41-1.29-4.01-1.06-19.44,2.73-39.89-1.08-59.5.31-.18.01-.36.03-.54.04-8.9-1.9-19.1-.71-26.82,1.33-5.71,1.5-12.6,5.37-17.55,10.56-1.2,1.01-2.15,2.2-2.9,3.55-2.52,3.66-3.99,7.77-3.49,12.07.06.53.5.83.93.82,0,5.35.78,10.81,1.12,14.98,1.52,18.7,6.28,37.35,10.67,55.54,11.35,46.91,20.76,95.56,37.81,140.77,1.46,3.86,6.42,3.69,8.14,1.13,44.61,13.54,89.96,9.34,135.98,6.4,49.18-3.14,98.45,2.17,147.64,2.51,3.32.36,6.78.09,10.11.08.86,0,1.56-.22,2.15-.57.85-.02,1.69-.04,2.54-.06.78.08,1.42-.08,1.94-.4.86.12,1.73-.03,2.45-.39,1.81.31,3.68-.35,4.73-2.53,21.07-43.95,24.87-93.82,34.05-140.99,5.47-28.1,5.82-56.97,8.34-85.39.8-9.03,1.89-18.06,2.93-27.06.36-3.08.84-5.86.72-8.59,2.11-2.74.92-7.88-3.6-7.88ZM343.08,267.5c-49.46-.31-98.85-5.32-148.33-2.64-25.34,1.38-50.44,3.96-75.87,3.41-12.33-.27-24.37-1.38-36.52-3.48-7.73-1.34-15.63-2.52-23.39-1.63-7.9-23.21-13.01-47.21-18.15-71.15-4.4-20.5-10.25-40.61-15.67-60.86-7.37-27.53-14.93-56.66-16.56-85.24,4.61-4.14,9.15-8.04,15.78-9.75,3.67-.94,7.56-1.45,11.51-1.72,2.31.15,4.64.24,6.97.24.57.77,1.45,1.36,2.63,1.51,14.38,1.83,29.6,1.32,44.25.1,7.68.4,15.33.4,22.81-.69,1.83,6.88,3.89,13.67,6.32,20.4,1.36,3.78,2.82,8.72,5.85,11.46.11,0,.21,0,.31,0,7.91,10.57,27.97,7.81,38.98,6.85,4.52-.39,9.02-.91,13.51-1.49,4.88.15,9.77.26,14.64.28,13.71.05,27.41.08,41.11.32,14.56.26,29.76,1.49,44.25-.07.22-.02.4-.07.6-.12-.11,10.38,4.1,20.78,7.95,30.32,6.43,15.9,14.45,31.09,20.43,47.18,14.71,39.59,31.36,78.09,47.61,117.05-.47-.19-.98-.33-1.59-.33-3.1-.02-6.31-.24-9.42.03ZM391.63,120.47c-3.65,25.01-8.48,50.08-13.17,74.92-4.3,22.76-9.53,45.78-18.99,67.06-15.06-36.05-31.04-71.63-42.34-109.14-8.67-28.75-23.08-55.91-34.58-83.72,1.01-3.02-.67-6.81-5.05-7.3-13.31-1.46-27.11-.68-40.5-1.01-13.74-.33-27.43-1.01-41.14-1.93-13.34-.89-26.66-1.37-40.02-1.85-7.8-.28-17.72-1.09-25.4,2.22-1.43-3.17-3.55-6.24-4.84-9.03-1.31-2.84-2.5-5.68-3.71-8.51.43-.64.66-1.47.55-2.47-1.12-11.06,1.91-22.52,6.46-32.64,1.45.1,2.98.31,4,.37,6.47.3,12.93.47,19.4.69,11.74.41,23.45.52,35.19.62,25.03.2,50.04.63,75.06,1.09,47.75.87,95.51,1.72,143.26,1.81-3.19,8.14-4.02,18.4-5.34,26.98-4.16,27.16-4.87,54.66-8.84,81.83Z"/></svg>