<?xml version="1.0" encoding="UTF-8"?><svg id="Calque_1" xmlns="http://www.w3.org/2000/svg" viewBox="0 0 235.52 266.51"><defs><style>.cls-1{fill:#111;}</style></defs><path class="cls-1" d="M207.63,170.44h0c15.49,0,27.89-12.4,27.89-27.89V27.89c0-15.49-12.4-27.89-27.89-27.89h0c-15.49,0-27.89,12.4-27.89,27.89v114.66c0,15.49,12.4,27.89,27.89,27.89Z"/><path class="cls-1" d="M117.76,189.04h0c15.49,0,27.89-12.4,27.89-27.89v-40.29c0-15.49-12.4-27.89-27.89-27.89h0c-15.49,0-27.89,12.4-27.89,27.89v43.39c0,12.4,12.4,24.79,27.89,24.79Z"/><path class="cls-1" d="M27.89,198.33h0c15.49,0,27.89-12.4,27.89-27.89V27.89C55.78,12.4,43.39,0,27.89,0h0C12.4,0,0,12.4,0,27.89v142.55c0,15.49,12.4,27.89,27.89,27.89Z"/><circle class="cls-1" cx="207.63" cy="210.73" r="27.89"/><circle class="cls-1" cx="120.86" cy="52.68" r="27.89"/><circle class="cls-1" cx="27.89" cy="238.62" r="27.89"/></svg>