<?xml version="1.0" encoding="UTF-8"?><svg id="Calque_1" xmlns="http://www.w3.org/2000/svg" viewBox="0 0 142.29 154.54"><defs><style>.cls-1{fill-rule:evenodd;}</style></defs><path class="cls-1" d="M42.86,111.42c6.2.32,10.7-8.72,5.42-12.78-1.03-.8-2.75-1.92-3.77-.53-6.48,1.55-10.86,12.4-1.65,13.31ZM45.67,100.78c3.62,1.88.78,7.54-2.74,7.39-5.26-1.08.32-6.19,2.74-7.39Z"/><path class="cls-1" d="M141.33,60.38c-.42-5.77.87-12.13-1.01-17.64,2.28-12.49,2.41-25.39-3.51-36.75-.14-.28-.31-.49-.49-.68-.19-.65-.49-1.3-.96-1.93-12.9-9.29-50.47,3.15-65.9,6.76-3.3,1.63-27.16,5.72-31.33,9.3-.29.02-.58.06-.84.1-1.43-.98-3,.77-2.37,2.12-5.94-.39-12.18-.7-16.09,2.96-1.09,2.01-.72,4.45-.86,6.66.02.51.02,1.03.01,1.55-4.95,2.65-10.73,6.46-12.76,11.88-2.37,1.17-.88,10.99-1.38,13.33-.1,8.76-.33,17.55.42,26.28-.81.24-1.47,1.01-1.12,2.07-4.88,11.62-4.34,24.42,3.49,31.51,1.26,8.8.82,24.93,8.09,28.83.63.43,1.26.33,1.74,0,1.58,2.97,12.97,6.45,14.86,6.71,1.24-.02,1.81-.58,1.9-1.24,1.17,1.19,2.72,2.02,4.79,2.33,19.75-.57,39.38-4.88,57.39-13.16,10.89-5.02,22.68-8.67,32.42-15.86,11.65-8.16,14.82-21.12,14.36-34.65.43-10.18-.52-20.33-.85-30.49ZM40.33,21.67c2.18-.51,5.04-2.15,6.53-2.22,5.45-1.51,10.96-2.83,16.43-4.28,16.35-3.79,55.39-17.21,69.7-9.55,0,.03.01.06.02.09-.11.32-.08.69.12,1.06-.08,1.52-1.14,3.18-2.72,4.84-.13-.02-.26-.03-.39-.01-2.91.31-5.73,1.17-8.4,2.35-.41.18-.82.36-1.22.55-.39-.37-.9-.5-1.47-.48-1.21-2.35-7.33,1.02-9.65,1.01-8.67,1.91-17.44,3.19-26.25,4.12,3.33-1.13,6.62-2.47,10-3.38,8.31-1.92,16.79-4.28,25.34-4.52-1,7.09,10.16-2.98-.95-3.3-13.32,1.03-26.27,4.78-38.84,9.16-1.72.94-5.14,0-5.56,2.38,0,.2.02.39.08.57-9.86.78-19.76,1.24-29.62,1.75-1.03.11-2.14.14-3.29.12.06-.08.12-.17.16-.26ZM23.54,86.45c.48,2.39-.31,5.4.47,7.71-1.47.19-2.92.29-4.32.26-.52-5.18-.81-10.38-.94-15.59-.02-5.77.24-11.54.83-17.28,1.03-.76.73-2.8,1.23-3.98.51-1.95,1.27-3.85,2.47-5.48,5.23-6.32,24.8-6.9,33.54-10.38,23.43-6.08,45.6-16.01,67.84-25.34-3.73,2.62-7.71,4.85-9.66,6-22.14,12.68-46.99,19.72-71.46,26.63-7.34,2.76-21.56,1.56-21.4,12.34-.14,8.39.89,16.74,1.4,25.11ZM15.72,93.93c.06-1.26-.67-2.55-.7-3.83-.8-6.81-1.11-13.64-1.27-20.49-.05-3.82-.11-7.66.31-11.47,0-.03.01-.06.02-.09,1.09-.72.86-2.79,1.27-3.99.85-3.27,1.17-7.16,3.63-9.79,6-4.46,14.16-4.59,21.32-5.75,17.75-3.79,35.59-7.55,53.05-12.58-9.42,3.7-18.96,7.12-28.59,10.17-12.96,4.43-26.9,5.7-39.72,10.4-2.29,1.05-4.1,2.93-5.32,5.11-.6,1.36-2.41,4.9-2.64,7.45-2.64,5.13-1.33,27.49-.68,34.99-.22-.04-.45-.09-.66-.14ZM28.33,24.87c13.36.43,26.68.04,39.97-1.46,11.83-.31,23.56-1.69,35.17-3.89-17.54,5.83-35.75,9.36-53.68,13.77-7.57,2.7-20.3,2.01-28.6,5.89-.01-.09-.03-.18-.06-.28.02-1.38.03-2.76.04-4.14.73-.77.58-1.6.02-2.13.02-1.85.07-3.7.21-5.55.84-2.47,4.76-1.92,6.94-2.21ZM7.98,46.17s0,.02,0,.03c1.98-4.17,5.78-7.34,9.86-9.62-.02,1.19.02,2.37.27,3.51.12.24.29.43.47.56-2.36,1.64-4.13,3.85-4.97,6.94-.15,1.53-1.86,5.56-1.97,8.23-2.69,4.31-.67,29.31.58,36.72-1.66-.95-3.14-2.32-4.39-4.19.04-.17.06-.36.04-.56-.49-4.36-.78-8.73-.87-13.12-.07-6.33.02-12.66.11-18.99-.33-1.48.45-5.54.29-8.32.34-.26.58-.66.58-1.2ZM5.16,90.18c8.28,12.41,24.23,6.51,35.81,3.03,4.85-1.58,11.96-2.07,14.58,3.32,3.16,14.01-21.03,23.65-32.25,23.62-5.94.08-10.48-1.43-13.72-4.04-.09-.87-.78-1.33-1.51-1.37-5.38-5.63-6.11-14.96-2.91-24.56ZM13.49,140.77c-2.11-6.52-2.6-13.49-3.39-20.37,2.97,1.66,6.62,2.71,11.02,2.95.71.01,1.42,0,2.13-.02-2.51,1.82-.24,18.1.71,24.31-1.01-.45-2-.95-2.97-1.47-.84-6.7-2.56-13.98-1.31-20.68.11-1.55-1.98-2.3-2.93-1.11-1.86,6.17-.16,13.6.78,20.22-.15.07-.27.15-.39.23-.1-.3-.31-.59-.65-.8-1.34-.72-2.44-1.83-3.01-3.25ZM30.66,149.96c-1.07-.26-2.14-.57-3.18-.93-.83-4.07-1.2-8.22-1.58-12.35-.26-3.05-.36-6.12-.41-9.18-.14-1.38.55-3.69-1.07-4.21.94-.05,1.87-.13,2.81-.24-.06,3.48,1.18,8.82,1.11,10.46,1.16,4.79.84,11.98,3.37,16.62-.31-.11-.66-.18-1.04-.16ZM98.33,136.61c-15.66,6.93-32.11,12.87-49.36,13.73-4.63-.2-11.8,3.57-14.47-1.86-2.17-6.33-2.52-13.04-3.46-19.66-.44-1.33-.11-4.18-.4-6.3,1.34-.26,2.67-.57,3.99-.95-.32,1.78.21,4.27.82,5.12,1.02.95,2.88.03,2.68-1.37-.14-.96-.23-1.92-.26-2.88.1-.62.11-1.32-.12-1.87,7.44-2.67,14.19-7.21,18.86-13.47,7.15-10.15-1.03-20.31-12.57-17.98-2.97.64-6.32,1.7-9.79,2.7.12-1.77.81-4.24-1.37-4.55-.87-.04-1.67.65-1.71,1.54.11,1.07-.36,2.72-.13,3.9-1.29.34-2.59.65-3.88.92-.01-.76-.13-1.61-.17-2.28-.14-5.86-.7-11.7-1.16-17.53-.23-3.33-.39-6.66-.46-10-.59-4.46.95-7.43,5.5-8.42,17.07-3.89,33.98-8.59,50.39-14.72,11.12-4.22,22.66-7.61,32.77-14.04,4.45-2.61,17.32-9.27,21.3-16.05,5.01,12.1,3.27,26.25.27,38.76-.89,3.41-1.78,6.82-2.81,10.2-.15,2.4-5.26,11.27-2.27,11.93,2.89,1.13,4.47-9.58,5.63-11.81.64-2.18,1.27-4.41,1.86-6.67.3,9.28.41,18.65.98,27.92-.17,6.1.19,12.4-.38,18.54-.94.81-1.39,2.36-.38,3.13-.35,2.31-.88,4.58-1.66,6.8-6.37,15.82-24.09,20.71-38.24,27.24Z"/><path class="cls-1" d="M33.58,76.65c.12-2.1-3.17-2.27-3.25-.17.03,1.55-.18,3.15.1,4.68.56,1.67,3.15,1.22,3.17-.52-.1-1.33-.04-2.66-.03-4Z"/><path class="cls-1" d="M31.24,69.76c1.19.25,2.29-1,1.83-2.15,1.44-2.25-.79-4.76-2.57-2.4-.74,1.41-1.34,4.06.75,4.55Z"/><path class="cls-1" d="M42.3,58.8c-2.19-.1-7.3,2.14-3.89,4.33,1.46.27,2.6-1.21,4.17-1.09,2.1-.17,1.82-3.45-.27-3.24ZM40.39,62.28c-.03.06-.07.11-.1.17,0,0,0-.01,0-.02-.03.05-.07.09-.11.14,0,0-.01.01-.02.02.1-.13.19-.27.26-.43-.02.04-.03.08-.05.12Z"/><path class="cls-1" d="M52.42,55.64c-1.94.41-5.06,2.69-2.2,4.24.87.36,1.47-.34,2.15-.72,1.77-1.27,6.4-.91,5.87-3.87-1.16-2.34-4.06-.03-5.82.35Z"/><path class="cls-1" d="M71.97,51.47c-.6-2.18-3.03-.86-4.53-.6-1.88.3-5.31,1.18-2.96,3.52,1.98.7,4.22-.73,6.25-.98.86-.22,1.43-1.05,1.24-1.94Z"/><path class="cls-1" d="M80.52,47.18c-1.66.48-1.33,3.12.43,3.16,1.92-.36,3.72-1.33,5.61-1.87.84-.29,1.27-1.26.97-2.08-1.48-2.56-4.91.47-7.01.8Z"/><path class="cls-1" d="M98.04,44.13c1.2-.41,2.92-1.01,2.35-2.62-.96-2.16-3.45-.37-4.91.23-1.22.65-3.35,1.44-2.5,3.19,1.32,2.12,3.47-.32,5.06-.8Z"/><path class="cls-1" d="M112.25,34.22c-1.4,1.08-4.77,1.39-4.17,3.74.75,1.85,2.7.78,3.9.07,1.21-.63,3.3-1.36,2.46-3.11-.41-.79-1.4-1.1-2.19-.7Z"/><path class="cls-1" d="M122.52,32.5c1.81-.81,4.78-2.91,1.64-4.28-1.67.13-6.19,2.4-4,4.52.66.65,1.81.44,2.36-.24Z"/><path class="cls-1" d="M135.84,24.27c1.58-1.39-.62-3.83-2.18-2.41-1.05,1.33-3.42,1.56-3.74,3.33.57,3.68,4.45.38,5.92-.91Z"/><path class="cls-1" d="M39.92,133.84c.72-1.78-1.9-3.09-2.92-1.48-.55,1.36-.53,3.47.4,4.65,1.02.95,2.87.03,2.68-1.37-.09-.6-.14-1.2-.16-1.8Z"/><path class="cls-1" d="M44.74,142.13c-1.51.27-3.36-.97-4.58.24-1.11,1.29.24,2.88,1.72,2.81,1.25.07,2.77.59,3.86-.22,1.07-.88.4-2.84-1-2.83Z"/><path class="cls-1" d="M56.1,140.74c-2.16-.05-3.38,2.74-.97,3.45,2.09-.21,4.17-.9,6.28-1.19.87-.17,1.42-1.09,1.24-1.94-1-2.6-4.54-.37-6.54-.32Z"/><path class="cls-1" d="M72.83,136.52c-1.51.67-4.67.53-4.34,2.86.37,1.58,2.1,1.37,3.24.84,1.27-.4,3.42-.63,3.04-2.47-.18-.83-1.09-1.48-1.94-1.24Z"/><path class="cls-1" d="M82.97,133c-2.14.28-3.4,3.22-.72,3.73.47.04.87-.18,1.22-.44,1.43-.74,4.54-.77,3.88-3.1-.8-1.96-2.98-.6-4.38-.19Z"/><path class="cls-1" d="M95.99,128.56c-1.81-.52-2.94,2.08-1.32,3.04,1.49.86,8.01-1.26,6.6-3.59-1.29-2.06-3.6.27-5.28.55Z"/><path class="cls-1" d="M111.52,120.37c-1.8,1.07-9.44,3.74-4.5,5.78,2.1-.57,3.96-2.03,6-2.9,1.88-.96.36-3.87-1.49-2.89ZM108.57,125.24s0,0,0,0c-.03.05-.06.1-.09.14.06-.09.11-.19.15-.3-.02.05-.04.11-.05.16Z"/><path class="cls-1" d="M124.1,112.75c-1.53,1.46-7.35,2.24-5.36,5.03,2.17,1.65,4.77-1.39,6.85-2.14,1.88-.96.36-3.88-1.49-2.89Z"/><path class="cls-1" d="M131.46,106.94c-1.76.66-2.46,3.35-.11,3.68,1.59-.24,2.73-1.81,4.15-2.54.73-.5.92-1.54.41-2.26-1.36-1.77-3.16.34-4.45,1.12Z"/></svg>