<?xml version="1.0" encoding="UTF-8"?><svg id="Calque_1" xmlns="http://www.w3.org/2000/svg" viewBox="0 0 120.12 164.46"><defs><style>.cls-1{fill-rule:evenodd;}</style></defs><path class="cls-1" d="M17.88,150.01c-6.86-.62-16.35-3.01-16.37-11.46-.56-9.8-.07-19.62-.76-29.38-.37-15.51-5.45-47.28,16.99-48.22,17.06-1.97,34.37-.12,51.5.24,12.32,1.29,32.69-1.35,37.83,12.97,1.74,11.65,1.36,23.63,1.91,35.41-.14,12.1,1.67,25.26-3.93,36.44-5.81,10.87-34.06,5.35-44.92,5.6-14.09-.64-28.17-1.1-42.25-1.6h0ZM23.29,147.04c12.3-.32,24.53,1.02,36.82,1.22,9.46-.32,37.15,4.85,42.15-4.13,4.61-9.78,3.27-21.12,3.43-31.62-.1-9.42-.64-18.82-1.02-28.22-.23-3.87.15-8.1-1.86-11.57-7.61-9.81-27.51-7.11-38.9-8.41-15.36-.51-30.95-1.44-46.21-.24-20.52,1.62-13.08,37.09-13.34,51.31.23,6.12.19,12.64.26,18.65-1.59,12.08,9.59,12.52,18.66,13.03Z"/><path class="cls-1" d="M55.25,163.89c-12-.94-24.07-.59-36.05-1.89-10,.3-15.99-8.81-17.34-17.81-.44-2.12,2.78-2.85,3.26-.74,1.19,7.22,5.32,15.27,13.6,15.15,6.66.69,13.34,1.08,20.04,1.18,13.87.15,27.76,2.38,41.59.71,14.04-1.21,34.79-.21,34.89-19.4.94-14.25,1.57-28.62,1.54-42.9-.33-13.48-1.52-24.05-15.86-28.98-.84-.31-1.69-.63-2.56-.83-1.76-.26-1.79-2.94-.07-3.28,4.6.58,8.84,3.41,12.75,5.81,11.5,9.2,8.65,26.53,8.96,39.66-1.11,13.47.65,27.67-3.72,40.61-5.49,11.11-19.77,11.37-30.55,12.23-10.14,1.02-20.34,1.51-30.5.48Z"/><path class="cls-1" d="M108.98,157.42c-2.83-2.95-4.82-6.59-6.93-10.07-.96-1.18-.55-3.24,1.2-3.18,1.71.16,2.02,2.66,2.94,3.63,1.64,2.52,3.11,5.22,5.25,7.37,1.49,1.56-1.03,3.88-2.47,2.26Z"/><path class="cls-1" d="M6.79,65.6C4.19,40.98,12.94,11.26,38.52,2.63c21.05-6.71,51.67-1.05,59.34,22.35,3.5,9.47-3.42,23.57-14.35,15.97-4.29-4.55-3.83-11.71-7.49-16.77-3.84-6.41-11.33-9.09-18.39-10.01-12.4-1.25-25.27,5.48-31.45,16.28-5.06,9.17-4.62,20.36-4.88,30.49,1.22,1.08.12,3.1-1.44,2.89-3.83-.64-1.23-11.37-1.48-14.42-.61-20.57,14.27-37.86,35.1-38.76,11.31-.29,23.7,4.98,27.66,16.29,1.8,3.62,1.86,8.09,4.37,11.32,3.61,3.25,8.76.48,9.46-3.98,2.01-9.47-4.59-18.16-11.86-23.48-8.68-6.24-20-7.21-30.39-7.4C27.5,3.73,11.95,25.38,10.22,48.96c-.61,5.42-.71,10.91-.1,16.34.25,2.13-3.16,2.49-3.33.3Z"/><path class="cls-1" d="M25.93,62.37c-1.66-13.56,4.61-33.99,17.18-41.23,15.33-7.16,27.85-.61,36.22,13.01,1.74,2.12,3.91,4.26,6.71,4.76.9.16,1.51,1.06,1.34,1.95-1.73,3.7-7.34-1.15-9.18-2.91-4.73-5.6-8.53-12.59-15.82-15.26-13.15-4.27-24.66,3.73-29.37,15.93-2.21,5.58-3.31,11.9-3.96,17.7-.63,2.08.85,8.5-3.13,6.05Z"/><path class="cls-1" d="M54.24,124.38c-20.78-1.91-4.66-9.1-3.55-18.58-9.49-5.83-8.69-17.47,1.41-22.07,14.8-6.97,27.22,12.8,12.91,22.41,11.52,17.61,9.22,18.28-10.77,18.24h0ZM58.63,121.16c3.38-.14,6.78-.46,10.09-1.18-1.2-3.8-3.64-7.22-5.58-10.57-.69-1.44-3-3.24-1.29-4.75,1.85-2.19,4.69-3.86,5.78-6.82,2.16-5.73-2.96-11.62-8.64-12.18-4.96-.45-10.96,3.43-11.66,8.54-.79,4.46,3.22,7.03,6.07,9.61,3.28,4.81-4.36,11.28-6.29,15.68,3.5,1.72,7.69,1.55,11.51,1.67Z"/><path class="cls-1" d="M52.67,122.38c-3.43-1.28,3.35-13.3,4-16.15-7.41-6.98-5.22-17.78,4.04-21.71,3.5-2.14,5.92,2.88,1.67,2.94-4.62,1.79-8.73,7.26-6.19,12.19.92,2.95,5.24,4.97,3.4,8.37-1.88,4.32-3.6,8.72-4.8,13.29-.24.88-1.27,1.35-2.11,1.07h0ZM62.29,84.26c.19-.06.4-.09.61-.09h0c-.07,0-.15,0-.23,0,0,0,0,0,0,0-.13.02-.26.04-.39.09Z"/><path class="cls-1" d="M23.14,162.19c-1.36-3.17-10.36-12.08-9.44-14.06,2.58-3.43,5.49,3.83,7.26,5.33,1.11,2.26,6.9,6.87,4.51,9.14-.72.51-1.84.36-2.33-.41Z"/><path class="cls-1" d="M35.34,162.75c-3.14-3.75-5.75-7.91-8.75-11.77-1.47-1.59,1.03-3.87,2.47-2.26,1.44,1.7,2.63,3.6,3.95,5.39,1.51,2.63,4.24,4.77,5.23,7.58,0,1.43-1.99,2.17-2.91,1.05Z"/><path class="cls-1" d="M44.16,160.65c-1.97-2.17-3.31-4.81-4.76-7.33-2.64-3.35.56-6.06,2.2-3.09,1.42,2.84,2.95,5.74,5.03,8.16,1.47,1.58-1.02,3.87-2.47,2.26Z"/><path class="cls-1" d="M54.1,159.81c-2.02-3.3-4.7-6.46-6.33-9.83,1.35-4.21,4.54.8,5.57,2.61,1.15,1.78,2.25,3.59,3.5,5.3,1.26,1.75-1.5,3.71-2.74,1.92Z"/><path class="cls-1" d="M68.9,160.78c-1.72-1.95-10.2-12.81-4.06-12.86.89.27,1.18,1.14,1.18,1.97.52,1.56,1.39,2.96,2.2,4.38.93,1.5,1.93,2.97,3.15,4.26,1.47,1.58-1.02,3.87-2.47,2.26Z"/><path class="cls-1" d="M83.51,162.16c-1.41-2.94-8.14-8.11-6.71-11.06.83-1.38,3.13-.7,3.07.89,1.12,2.3,8.66,8.52,5.97,10.57-.75.53-1.78.33-2.33-.41Z"/><path class="cls-1" d="M93.02,161.11c-1.74-2.07-3.3-4.29-5.05-6.35-.59-.69-1.45-1.32-1.24-2.34,2.18-4.6,6.18,3.91,7.94,5.43,2.27,1.63.91,5.15-1.65,3.25Z"/><path class="cls-1" d="M99.59,156.92c-1.22-2.03-7.27-7.1-3.46-8.85,2.25-.31,3.26,4.1,4.98,5.45,2.34,1.69,1.24,5.29-1.52,3.4Z"/></svg>