<?xml version="1.0" encoding="UTF-8"?><svg id="Calque_1" xmlns="http://www.w3.org/2000/svg" viewBox="0 0 179.96 173.54"><defs><style>.cls-1{fill:#1a1718;}</style></defs><path class="cls-1" d="M177.12,90.8c-6.29-6.79-12.71-13.47-18.86-20.39-6-6.92-11.39-14.31-16.68-21.81-5.03-7.13-8.52-15.18-12.52-22.92-4.76-8.47-7.92-17.89-14.13-25.52-1.37-.37-2.82-.08-4,.66-3.45,2.03-6.76,4.31-10.1,6.5-3.26-2.26-7.08-3.95-11.1-3.55-4.37.34-9.39,1.42-12.08,5.21-1.6,2.1.24,4.45,1,6.5-4.31,2.29-8.6,4.63-12.79,7.16-2.58-2.03-5.37-4.53-8.92-4.24-4.42-.03-9.76,1.79-11.26,6.37-1.05,2.47.34,4.95,1.16,7.26-2.92,1.92-5.92,3.71-8.95,5.47-2-2.16-4.13-4.58-7.18-5.13-3.63-.55-7.34.08-10.87,1.11-4.05,1.24-8.18,3.92-9.37,8.21-.68,3.18,1.84,5.74,3.79,7.89-4,1.89-7.45,4.74-11.34,6.89-.05,6.68-1.45,13.26-2.92,19.76,3.68,6.18,7.05,12.63,11.5,18.31,5.74,7.58,11.08,15.47,15.23,24.02,4.71,9.73,11.29,18.36,16.26,27.94,5.89,9.16,10.87,19.02,18.34,27.05,4.66-2.45,9.55-4.31,14.44-6.24,12.08-4.34,23.34-10.55,35.12-15.52,14.6-7.18,29.2-14.34,43.54-22.02,5.21-2.87,11.23-4.5,15.79-8.45,3.29-4.66,4.53-10.39,7.31-15.31,2.03-3.34,1.71-7.37,2.42-11.08-.53-1.63-1.76-2.87-2.84-4.13ZM159.12,79.2c-2.55,9.52-6.68,18.52-10.66,27.49-3.24-6.18-5.45-12.81-8.71-18.97,6.08-3.66,12.87-5.76,19.36-8.52ZM97.95,9.89c6.79,5.29,9,15.63,4.76,23.15-1.6,2.92-4.87,4.08-7.79,5.26,1.42-5.81,1-12.31-2.39-17.34-2.92-4.39-8.5-5.6-11.92-9.5,4.68-3.97,12.13-5.16,17.34-1.58ZM55.07,23.15c5.5-1.45,8.89,3.89,11.87,7.5,3.63,3.95,3.76,9.68,3.66,14.76-.08,3.58-3.76,5-6.39,6.58-.16-3.89.47-8.08-1.45-11.68-2.71-5.74-10.66-6.24-13.18-12.1-.92-3.1,3.18-4.42,5.5-5.05ZM98.48,53.17c6.08-2.39,11.63-5.89,17.52-8.66,4.71-2.55,9.68-4.58,14.34-7.24,6.95,14.52,17,27.28,27.28,39.57-7.63,2.84-15.39,5.5-22.34,9.87,3.79,8.45,6.87,17.23,11.47,25.28-12.63,6.71-25.05,13.81-37.94,20.05-12.97,6.26-25.47,13.94-39.49,17.68-7.89-11.26-16.89-21.65-25.31-32.49-6.81-8.66-10.73-19-15.92-28.6,22.26-14.08,46.07-25.44,70.38-35.47ZM14.02,42.62c3.55-4.92,9.79-7.13,15.71-7,4,.32,6.05,4.24,8.13,7.16,2.39,4.18,4.31,8.95,4.31,13.81-.03,3.76-4.03,4.79-6.66,6.37-.61-5.6-3.5-11.29-8.84-13.73-4.1-2.42-9.79-2.34-12.66-6.6ZM4.24,75.3c.26-4.24,1.13-8.42,1.39-12.66,4.71,6.6,8.68,13.73,13.63,20.18,1.6,2.42,3.87,4.58,4.68,7.42-.61,4.71-1.66,9.39-1.87,14.15-6.05-9.63-13.76-18.36-17.84-29.1ZM61.01,167.55c-5.39-6.16-9.23-13.44-13.52-20.36,4.26,2.95,7.18,7.31,10.79,10.97-2.39-5.08-6.08-10-11.39-12.26-1.21-.87-1.74-2.39-2.53-3.63-3.89-7.45-9.13-14.08-13.08-21.47-2.6-4.92-5.13-9.87-8.05-14.6,1.37-3.95,2.05-8.08,2.97-12.13,4.34,8.81,8.1,18,14,25.94,8.29,11.05,17,21.76,24.78,33.2-1.29,4.79-2.63,9.55-3.97,14.34ZM169.31,114.61c-1.58,3.71-5.5,5.37-8.79,7.21-9.21,4.26-17.65,9.92-26.7,14.5-9.95,4.97-19.52,10.68-29.73,15.15-9.02,4.03-17.63,9-26.94,12.39-4.39,1.63-8.71,3.45-13.16,4.97.84-4.24,1.84-8.45,2.71-12.66,8.13-2.92,16.44-5.42,24.13-9.45,13.89-7.08,28.02-13.68,41.68-21.18,14.21-7.97,28.47-15.81,42.68-23.78-2.03,4.24-4,8.52-5.87,12.84ZM151.65,109.22c3.08-9.5,7.68-18.44,9.84-28.26,4.68,5.16,9.76,9.97,14.52,15.05-7.87,4.87-16.13,9.05-24.36,13.21Z"/><path class="cls-1" d="M100.96,64.21c5.14-2.9,11-4.29,16.89-3.44-2.77,4.06-7.07,6.85-11.56,8.67-14.85,6.16-28.38,15.45-44.08,19.48-.8-.85-1.58-1.7-2.37-2.54,3.98-2.33,8.36-3.88,12.38-6.15,9.71-5.11,18.91-11.13,28.74-16.03Z"/><path class="cls-1" d="M104.12,76.53c7.26-3.8,15.24-6.64,23.47-7.19-5.18,4.54-11.12,8.15-16.88,11.89-11.51,6.04-23.28,11.59-34.54,18.1-3.36,1.81-6.49,4.07-10.07,5.44-1.18.6-2.31-1.98-.97-2.46,12.24-9.66,25.53-17.93,39-25.78Z"/><path class="cls-1" d="M9.85,81.48c3.66,2.05,5.24,6.16,6.63,9.89-2.03-3.42-4.18-6.76-6.63-9.89Z"/><path class="cls-1" d="M119.75,90.72c3.14-1.12,6.41-1.96,9.76-2.06-2.91,2.71-6.81,3.91-10.07,6.12-7.22,4.55-15.07,7.94-22.45,12.21-8.66,4.7-16.94,10.11-25.8,14.46,3.9-4.34,9.08-7.22,13.7-10.68,11.08-7.54,22-15.82,34.87-20.05Z"/><path class="cls-1" d="M78.3,129.9c16.33-12.46,32.76-26.11,53.11-31.26-1.25,1.17-2.56,2.3-4.05,3.17-9.17,5.36-17.67,11.79-26.79,17.22-7.18,4.26-13.86,9.38-21.27,13.25-.24-.59-.74-1.78-.99-2.37Z"/><path class="cls-1" d="M28.64,109.78c1.46,1.85,2.61,3.92,3.71,6,4.2,7.84,9.23,15.2,14.49,22.35-8.45-7.65-13.8-18-18.2-28.35Z"/><path class="cls-1" d="M43.34,128.38c3.37,2.94,5.42,6.99,8.02,10.57,3.18,4.76,6.48,9.45,9.54,14.28-7.59-6.94-11.89-16.46-17.56-24.85Z"/></svg>