<?xml version="1.0" encoding="UTF-8"?><svg id="Calque_1" xmlns="http://www.w3.org/2000/svg" viewBox="0 0 156.59 176.86"><defs><style>.cls-1{fill-rule:evenodd;}</style></defs><path class="cls-1" d="M55.16,99.45c-13.19.11-45.43-4.26-50.75-17.84-1.78-3.55-.81-15.94,3.2-17.29,5.56.55-9.6,15.01,7.28,23.53,16.37,7.54,34.53,9.1,52.33,8.46,19.4-.37,39.28-.76,57.67-7.64,9.77-3.49,29.13-11.48,23.06-24.56-.65-1.27-3.04-2.27-1.81-3.93,2.22-2.08,4.34,2.06,5.33,3.71,5.78,18.87-22.57,27.13-36.2,31.03-19.6,4.84-40.04,4.45-60.1,4.52Z"/><path class="cls-1" d="M72.87,110.19c-13.57.23-27.14-.41-40.39-3.53-10.6-2.81-24.14-4.61-30.04-15.01-4.32-8.17-2.67-18.94,3.22-25.9,2.06-1.89,4.63,1.51,1.88,2.57-9.47,14.16-3.33,28.03,13.04,31.92,16.9,5.55,34.73,7.22,52.44,6.8,12.48.26,24.77-1.58,36.96-4.01,13.44-2.33,27.95-6.3,37.48-16.65,4.52-5.36,9.56-15.6,2.82-21.06-2.57-.7-2.16-4.36.58-3.34,3.01,1.49,5.04,4.48,5.57,7.77,1.48,11.91-8.04,22.4-18.02,27.5-7.22,3.89-15.06,6.57-23.14,7.98-13.95,2.79-28.15,5.32-42.4,4.97Z"/><path class="cls-1" d="M17.37,90.62c-3.84-25.29,8.9-53.56,32.38-65.14,15.39-7.29,33.94-10.11,50.23-4.24,17.67,6.49,29.73,20.96,36.07,38.34,1.81,3.04,8.08,24.02,3.38,24.39-.85,0-1.59-.72-1.58-1.58.05-3.47-.32-6.94-.96-10.34-5.57-21.1-16.77-40.07-38.13-47.9-14.37-5.2-30.54-2.89-44.4,2.65-14.3,5.98-25.29,18.58-30.67,32.98-1.9,5.62-3.21,11.45-3.55,17.39-.19,3.23-.17,6.46-.13,9.7.22,1.82.14,5.58-2.63,3.75Z"/><path class="cls-1" d="M77.23,136.82c-21.82-.87-41.55-13.54-54.67-30.51-1.16-1.18-2.38-3.85,0-4.38.89-.1,1.74.55,1.79,1.46,3.08,4.49,7.21,8.59,11.2,12.09,15.31,14.72,37.53,21.28,58.33,17.16,18.39-3.83,32.37-18.23,40.36-34.64.71-1.24,1.11-3.64,3.04-2.93.78.33,1.19,1.29.84,2.07-1.24,2.79-2.74,5.46-4.32,8.07-10.86,20.34-33.28,33.97-56.57,31.62Z"/><path class="cls-1" d="M73.67,20.54c-3.45-.24,1.51-10.63,1.56-13.16.17-1.42,1.52-2.84,2.97-1.94,1.52,1.25,1.49,3.6,2.02,5.37.27,2.52,1.59,5.2,1.12,7.68-3.55,3.27-3.35-4.4-4.07-6.36-.94,1.87-1.15,8.86-3.61,8.41Z"/><path class="cls-1" d="M75.54,149.57c-.25-3.44-.25-6.9-.49-10.35-.85-2.73,1.87-4.71,3.03-1.82.05,4.23.99,8.81.27,12.92-.78,1.09-2.7.6-2.81-.75Z"/><path class="cls-1" d="M81.36,149.86c-.03-3.71.12-7.44-.12-11.14-1.68-1.83,1.69-4.53,2.82-2.04.89,4.3.3,8.81.45,13.18.02,2.04-3.18,2.05-3.16,0Z"/><path class="cls-1" d="M80,152.82c-6.56-.32-4.37-6.48-1.38-3.57,1.23.47,3.38.33,3.15,2.22-.11.86-.94,1.46-1.78,1.35Z"/><path class="cls-1" d="M53.81,167.14c-2.15-1.8,1.12-4.68,2.04-6.45,4.79-6.19,11.41-11.11,18.55-14.25,1.21-.59,3.24-.44,3.27,1.27,0,.96-.87,1.67-1.8,1.58-1.66.54-3.2,1.39-4.69,2.29-5.1,3.29-9.99,6.86-13.44,11.91-1.16,1.28-1.58,4.74-3.91,3.66Z"/><path class="cls-1" d="M107.41,167.47c-4.27-8.09-11.78-15.29-20.75-17.62-1.16-.31-2.91-.05-3.31-1.5-.24-.85.32-1.74,1.15-1.96,11.18,1.06,20.79,10.24,25.83,19.86.8,1.87-2.12,3.13-2.91,1.23Z"/><path class="cls-1" d="M73.63,176.47c-5.13-.35-10.22-1.57-14.8-3.96-1.72-1.28-7.36-3.29-5.53-5.95,2.03-1.74,3.54,1.57,5.37,2.23,5.86,3.69,12.87,4.61,19.66,4.8,8.89.16,18.35.52,26.17-4.39,2.13-.51,4.88-4.59,6.8-2.7,1.43,2.26-2.21,3.47-3.62,4.54-10.05,6.71-22.49,6.11-34.05,5.45Z"/><path class="cls-1" d="M41.1,97.84c-7.85-27.65,2.48-63.11,28.43-77.59,1.28-.61,2.54-1.37,3.94-1.64,2-.33,2.56,2.78.53,3.11-1.31.36-2.64,1.14-3.68,1.67-20.1,11.64-29.06,36.06-28.66,58.42.21,5.11.9,10.23,2.46,15.09.63,1.92-2.41,2.91-3.02.93Z"/><path class="cls-1" d="M71.87,135.72c-12.89-3.07-20.99-13.97-27.26-24.86-1.79-.61-1.05-3.35.79-3.13,2.06.52,2.72,3.09,3.92,4.63,2.19,3.62,4.43,7.26,7.35,10.34,2.89,3.09,6.06,5.99,9.98,7.71,2.07.92,4.22,1.65,6.36,2.37,1.91.69.76,3.72-1.14,2.95Z"/><path class="cls-1" d="M63.96,96.75c-2.96-25.58-2.17-54.14,11.74-76.61-.14.17-.26.34-.33.54.56-1.69,3.28-1.12,3.05.69-1.22,2.42-3.02,4.84-4.01,7.32-3.51,7.8-5.62,16.15-7.01,24.57-1.46,8.73-1.85,17.62-1.63,26.47.23,5.51.37,11.05,1.31,16.5.36,1.98-2.78,2.57-3.12.53Z"/><path class="cls-1" d="M77.05,135.11c-2.67-2.3-15.41-26.64-9.29-27.05,1,.1,1.55,1.06,1.41,2,.87,4.65,2.5,9.14,4.6,13.37,1.64,3.38,3.23,6.84,5.73,9.68,1.3,1.56-1.15,3.59-2.45,2Z"/><path class="cls-1" d="M93.11,96.56c-2.74-.46-.66-5.88-1.05-7.92.13-4.84,0-9.95-.44-14.7-2-17.18-5.21-35.11-13.81-50.29-2.07-2.18.91-5.11,2.35-2.23,10.43,18.55,14.14,40.43,15.08,61.48-.33,2.37,1.04,14.33-2.14,13.67Z"/><path class="cls-1" d="M84.95,134.09c-1.81-1.51.68-3.16,1.41-4.54,1.57-2.63,2.27-5.68,2.82-8.66.56-3.35.83-6.73,1.2-10.1-.03-2.01.74-5.4,3.18-3.05.06,6.69-.92,13.83-2.96,20.23-.92,1.94-2.91,7.47-5.65,6.12Z"/><path class="cls-1" d="M116.97,92.37c-1.8-.23-1.37-2.2-1.32-3.5.09-3.31-.15-6.62-.45-9.92-2.12-23.47-12.04-42.79-32.75-54.93-1.38-.97-4.14-.55-4.38-2.62.15-2.56,2.94-1.35,4.44-.79,21.38,11.24,32.92,31.65,35.5,55.23.05,2.69,2.68,17.03-1.02,16.54Z"/><path class="cls-1" d="M88.06,134.22c-.53-2.08,2.07-2.16,3.39-2.75,10.99-5.73,18.98-15.93,23.3-27.41.76-1.74,3.6-1.03,3.15.93-3.93,9.37-9.24,18.3-17.66,24.4-2.22,1.64-10.13,8.39-12.18,4.84Z"/><path class="cls-1" d="M59.75,58.55c-10.03-1.07-20.37-1.78-29.7-5.91-1.54-.87-5.18-1.68-3.87-4.04,1.3-1.62,2.99.34,4.38.81,3,1.34,6.1,2.45,9.3,3.21,14.02,3.14,28.45,3.18,42.7,2.02,11.02-1.06,22.09-2.54,32.55-6.31,3.38-1.33,6.69-2.9,9.67-4.98,1.69-1.1,3.43,1.6,1.67,2.68-19.49,12.05-44.45,12.02-66.69,12.53Z"/><path class="cls-1" d="M67.04,87.83c-7-.44-13.9-1.91-20.8-3.06-9.46-1.18-18.72-3.54-27.48-7.31-1.76-.97-.29-3.77,1.52-2.77,8.32,3.49,17.02,5.77,25.98,6.89,10.47,1.96,21.01,3.73,31.7,3.28,16.07-.74,32.34-3.04,46.94-10.06,3.06-1.65,5.87-3.72,8.55-5.93,1.4-.85,3-3.51,4.67-1.79,1.69,2.39-4.24,4.95-5.6,6.54-17.52,12.41-44.46,14.94-65.47,14.21Z"/><path class="cls-1" d="M73.45,126.93c-8.54-.2-17.15-.71-25.48-2.52-2.03-.88-8.07.35-8.18-2.2-.12-3.78,12,.1,14.4.1,20.34,2.36,46.62,3.31,65.91-3.95,1.83-.87,3.19,2.03,1.31,2.87-15.07,5.91-31.95,6.09-47.96,5.7Z"/><path class="cls-1" d="M104.17,13.2c-4.06-1.26,2.04-7.04,3.05-9.06,1.19-1.66,3.77.21,2.55,1.86-.99,1.37-1.99,2.75-2.91,4.17-.91,1.02-.95,3.18-2.7,3.03Z"/><path class="cls-1" d="M63.92,9.22c-1.55-.03-7.1-8.26-4.63-9.04,2.82-1.18,3.4,3.89,5.01,5.39.59.8,1.88,1.24,1.53,2.48-.19.84-1.08,1.36-1.91,1.16Z"/><path class="cls-1" d="M40.88,18.18c-2.71-1-4.88-3.09-7.22-4.74-1.66-1.19.22-3.77,1.86-2.55,1.68,1.27,3.35,2.56,5.11,3.7.99.55,2.52.96,2.15,2.43-.18.84-1.09,1.36-1.91,1.16Z"/><path class="cls-1" d="M118.27,18.55c.21-1.67,5.24-7.07,6.81-4.83,1.34,2.33-2.46,3.4-3.48,5.07-.63,1.69-3.21,1.82-3.32-.24Z"/></svg>