<?xml version="1.0" encoding="UTF-8"?><svg id="Calque_1" xmlns="http://www.w3.org/2000/svg" viewBox="0 0 313.81 323.54"><path d="M76.58,22.38c-17.75-.04-31.54,12.97-40.19,27.25-7.96,13.15-12.93,27.89-10.4,43.2,1.03,6.21,2.74,12.49,5.11,18.53-.31.11-.59.39-.6.75-.42,13.43,11.05,24.51,21.93,30.66,10.89,6.16,23.87,9.24,36.36,8.33,20.34-1.48,35.04-16.06,41.91-34.45,14.58-39.03-7.58-94.17-54.13-94.26ZM123.9,116.48c-6.12,14.97-18.66,26.1-35.11,27.55-7.19.64-14.76-.4-22.01-2.77,1.97-.67,3.89-1.73,5.72-3.25.11-.09-.03-.23-.14-.18-3.33,1.48-6.44,2.1-9.35,2.07-7.01-2.79-13.58-6.84-19.06-11.86-6.31-8.67-10.45-20.36-12.65-28.96-2.75-10.7-2.67-19.58.88-30.02,4.55-13.39,12.35-26.63,24-34.97,22.07-15.82,51.08-1.47,63.49,19.42,10.95,18.44,12.31,43.22,4.23,62.97Z"/><path d="M311.06,287.02c-4.8-11.01-13.65-20.33-22.11-28.62-10.81-10.61-22.7-20.13-34.71-29.35-10.84-8.32-21.95-16.29-32.93-24.42-4.1-3.04-8.2-6.11-12.14-9.36-1.81-1.49-3.34-3.11-5-4.53,0-.03.02-.06.03-.08,2.17-7.73-8.3-10.63-11.54-3.72-.69,1.46-1.58,2.77-2.59,3.99-18.59-15.9-34.29-34.88-52.87-50.76,2.96-3.47,5.66-6.98,8.04-10.39,15.48-22.2,12.04-48.98,2.36-72.67-9.67-23.68-24.65-47.89-50.7-55.26-25.53-7.22-51.68,7.86-69.76,24.66C12.75,39.87,2.49,57.08.34,76.79c-1.94,17.76,4.54,35.05,13.62,49.98,11.84,19.46,35.36,45.76,59.68,41.15-.3,1.38.32,3,1.92,3.27,17.72,3.06,34.98-5.85,49.01-18.15,15.77,18.15,32.75,35.24,49.82,52.17-2.04,2.2-3.77,4.66-4.98,7.58-1.82,4.38,3.52,7.48,7.01,5.66,1.45,4.42,4.22,8.61,6.66,12.17,7.05,10.27,17.38,18.72,26.57,27,5.66,5.09,11.31,9.97,16.6,15.34,2.47,3.87,5.23,7.76,8.75,10.42.23.17.5.14.71,0,6.1,6.95,12.21,13.9,18.79,20.42,12.98,12.87,30.32,27.29,48.28,15.2,11.42-7.69,13.6-19.74,8.28-31.96ZM191.81,210.85c7.77,11.55,13.75,24.15,20.01,36.55-2.72-2.89-5.41-5.81-8.01-8.82-6.13-7.07-13.01-15.04-17.23-23.76,1.76-.87,3.53-2.26,5.23-3.98ZM98.29,160.97c-5,2.01-10.24,2.86-15.5,3.68,1.02-.54,2.04-1.13,3.06-1.8.07-.04,0-.15-.06-.11-1.49.87-2.98,1.57-4.48,2.15-1.92.3-3.84.62-5.75,1-.53.11-.95.37-1.28.73-17.98,2.02-35.35-13.65-46.07-26.94C12.59,120.31.92,96.31,5.9,70.87c5.6-28.62,32.28-52.56,59.17-61.38,27.64-9.06,51.63,5.92,65.55,29.51,13.15,22.28,24.36,51.63,13.74,76.99-5.6,13.38-16.93,24.39-27.76,33.7-5.45,4.68-11.64,8.61-18.31,11.29ZM125.86,151.88c3.6-3.25,6.97-6.71,10.06-10.24,15.42,18.87,31.77,37.3,50.29,53.18-1.68,1.46-3.44,2.83-5.12,4.23-1.05.87-2.06,1.77-3.04,2.69-16.94-17.08-34.05-34.07-52.2-49.85ZM198.66,240.77c-5.46-4.9-10.67-10.16-15.46-15.73-1.99-2.31-3.98-4.98-5.31-7.87.07-.09.15-.17.22-.27.45-.69.93-1.35,1.42-2,1.85,1.11,3.82,1.15,5.81.46,3.07,8.29,8.52,15.64,13.99,22.49,3.59,4.49,7.41,8.79,11.32,13.01-4.06-3.31-8.12-6.61-11.99-10.09ZM305.95,307.53c-.32.54-.69,1.07-1.08,1.6-2.35-3.26-5.73-5.88-8.36-8.91-3.5-4.04-6.16-8.66-9.59-12.74-.08-.09-.22-.01-.2.1,1.25,5.4,3.96,9.94,6.95,14.57,2.32,3.59,4.92,7.6,8.63,9.84-1.3,1.21-2.76,2.3-4.32,3.21-12.31-10.69-19.33-25.09-25.69-39.99-.05-.12-.25-.05-.22.07,2.69,8.66,5.61,17.31,9.93,25.32,3,5.58,7.2,12.84,13.17,15.98-2.59,1.07-5.3,1.63-7.87,1.44-5.83-.44-11.43-3.47-16.57-7.4-4.7-11.5-12.54-22.27-18.62-32.95-7.87-13.81-15.17-27.66-19.71-42.96-.04-.14-.26-.1-.23.05,3.22,13.97,8.41,27.51,15.23,40.13,3.63,6.72,7.54,13.3,11.34,19.92,1.93,3.35,3.69,6.84,5.52,10.29-3.09-2.9-5.93-5.87-8.44-8.43-9.28-9.45-17.47-19.89-26.64-29.43-1.48-1.54-3.02-3.02-4.59-4.48.35-.22.55-.63.29-1.1-2.07-3.71-5.4-6.36-8.38-9.35-.27-.27-.52-.55-.78-.82-1.24-2.29-2.46-4.58-3.68-6.88-6.17-11.66-12.13-23.45-19.71-34.27,3.7-3.9,7.04-9.18,9.26-13.53,1.91,1.95,4.19,3.64,6.4,5.4,5.87,4.69,11.98,9.08,18.04,13.51,16.02,11.72,32.09,23.43,47.12,36.42,12.56,10.86,26.64,23.38,33.13,39.06,1.31,3.18,2,6.6,1.7,9.92-.55-2.55-2.34-4.63-3.8-6.84-2.07-3.14-4.65-5.81-7.43-8.32-.33-.3-.75.09-.51.46,2,2.94,3.58,6.08,5.34,9.16,1.48,2.59,2.41,5.72,4.98,7.39.34.22.82.18,1.17-.04-.33,1.6-.9,3.15-1.77,4.63Z"/><path d="M211.97,223.87c-.15-.21-.51.04-.37.25,6.17,9.54,11.86,19.35,17.29,29.33,5.27,9.7,9.77,20.71,16.37,29.57.53.71,1.84.06,1.57-.79-3.27-10.46-10.09-20.56-15.79-29.85-5.99-9.75-12.32-19.28-19.07-28.52Z"/><path d="M254.14,258.81c-.1-.24-.51-.1-.43.15,3.39,10.27,6.49,20.64,10.58,30.66,3.92,9.58,9.56,21.46,18.49,27.33.8.53,2.03-.43,1.47-1.32-5.79-9.25-13-17.08-17.92-27.03-4.76-9.61-8.27-19.83-12.2-29.79Z"/></svg>